<?xml version="1.0" encoding="UTF-8"?>
<!DOCTYPE svg PUBLIC "-//W3C//DTD SVG 1.1//EN" "http://www.w3.org/Graphics/SVG/1.1/DTD/svg11.dtd">
<!-- Creator: CorelDRAW -->
<svg xmlns="http://www.w3.org/2000/svg" xml:space="preserve" width="43.3492mm" height="43.3492mm" version="1.1" style="shape-rendering:geometricPrecision; text-rendering:geometricPrecision; image-rendering:optimizeQuality; fill-rule:evenodd; clip-rule:evenodd"
viewBox="0 0 4334.92 4334.92"
 xmlns:xlink="http://www.w3.org/1999/xlink"
 xmlns:xodm="http://www.corel.com/coreldraw/odm/2003">
 <defs>
  <style type="text/css">
   <![CDATA[
    .fil0 {fill:none}
    .fil1 {fill:black}
    .fil3 {fill:black;fill-rule:nonzero}
    .fil2 {fill:black;fill-rule:nonzero}
   ]]>
  </style>
 </defs>
 <g id="Camada_x0020_1">
  <metadata id="CorelCorpID_0Corel-Layer"/>
  <path id="menu-alt-1-svgrepo-com.svg" class="fil0" d="M516.47 -1993.85l220.12 0m-220.12 82.55l137.58 0m-137.58 82.54l68.79 0"/>
  <g id="_2355683748256">
   <path class="fil1" d="M2357.96 2229.17l1448.09 3.82 4.47 -62.06 0 -2035.47 -1905 0 0 261.94 134.94 0 0 -127.01 1635.12 0 0 1825.63 -1270.9 -0.91c-61.36,0.44 -46.72,1.33 -46.72,134.06z"/>
   <path class="fil1" d="M524.4 2163.99l0 2035.47 1905 0 0 -261.94 -134.94 0 0 127.01 -1635.12 0 0 -1825.63 1270.9 0.91c42.14,-0.3 45.9,2.45 47.73,-39.6 1.22,-28.25 -1.01,-64.97 -1.01,-94.46l-1447.6 -3.75 -4.96 61.99z"/>
   <path class="fil1" d="M2229.08 1976.96l3.9 -1448.08 -62.07 -4.48 -2035.45 0 0 1905 261.94 0 0 -134.94 -127.01 0 0 -1635.12 1825.63 0 -0.91 1270.9c0.44,61.35 1.33,46.72 133.97,46.72z"/>
   <path class="fil1" d="M2105.84 2357.96l-3.83 1447.57 62 4.99 2035.45 0 0 -1905 -261.94 0 0 134.94 127.01 0 0 1635.12 -1825.63 0 0.91 -1270.9c-0.44,-61.35 -1.33,-46.72 -133.97,-46.72z"/>
   <path class="fil1" d="M2096.02 2119.83c0,142.51 -23.44,119.07 119.07,119.07 35.26,0 23.81,-37.05 23.81,-119.07 0,-35.26 -37.05,-23.81 -119.07,-23.81 -18.29,0 -23.81,5.52 -23.81,23.81z"/>
  </g>
  <g>
   <path id="facebook-option-svgrepo-com.svg" class="fil1" d="M1216.94 3858.88l0 -596.03 -198.68 0 0 -248.35 198.68 0 0 -198.67c0,-205.29 129.98,-306.31 313.11,-306.31 87.72,0 163.12,6.55 185.07,9.43l0 214.57 -127 0.05c-99.59,0 -122.84,47.34 -122.84,116.78l0 164.15 248.35 0 -49.67 248.35 -198.68 0 3.98 596.03 -252.32 0zm0 0l0 0 0 0z"/>
  </g>
  <g id="instagram-2016-logo-svgrepo-com.svg">
   <g>
    <path class="fil2" d="M2769.11 1184.23c0,-99.03 80.26,-179.34 179.29,-179.34 99.04,0 179.34,80.31 179.34,179.34 0,99.03 -80.3,179.34 -179.34,179.34 -99.03,0 -179.29,-80.31 -179.29,-179.34l0 0zm-96.95 0c0,152.57 123.67,276.24 276.24,276.24 152.57,0 276.24,-123.67 276.24,-276.24 0,-152.57 -123.67,-276.24 -276.24,-276.24 -152.57,0 -276.24,123.67 -276.24,276.24l0 0zm498.86 -287.19c0,0.01 0,0.01 0,0.02 0,35.65 28.91,64.56 64.56,64.56 35.65,0 64.55,-28.91 64.55,-64.56 0,-35.64 -28.89,-64.55 -64.53,-64.55l-0.02 0c-35.64,0.01 -64.53,28.89 -64.56,64.53l0 0zm-439.96 725.08c-52.45,-2.38 -80.96,-11.12 -99.9,-18.5 -25.12,-9.78 -43.04,-21.43 -61.88,-40.24 -18.84,-18.82 -30.51,-36.72 -40.24,-61.84 -7.39,-18.93 -16.12,-47.45 -18.51,-99.9 -2.61,-56.71 -3.13,-73.74 -3.13,-217.41 0,-143.66 0.57,-160.65 3.13,-217.4 2.39,-52.45 11.19,-80.91 18.51,-99.9 9.78,-25.12 21.42,-43.04 40.24,-61.88 18.81,-18.85 36.72,-30.51 61.88,-40.24 18.93,-7.39 47.45,-16.13 99.9,-18.51 56.71,-2.61 73.74,-3.13 217.34,-3.13 143.6,0 160.65,0.56 217.41,3.13 52.45,2.39 80.91,11.19 99.9,18.51 25.12,9.73 43.04,21.42 61.88,40.24 18.84,18.81 30.46,36.76 40.24,61.88 7.38,18.93 16.12,47.45 18.51,99.9 2.6,56.75 3.12,73.74 3.12,217.4 0,143.67 -0.52,160.66 -3.12,217.41 -2.39,52.45 -11.17,80.96 -18.51,99.9 -9.78,25.12 -21.42,43.04 -40.24,61.84 -18.82,18.8 -36.76,30.46 -61.88,40.24 -18.94,7.38 -47.45,16.12 -99.9,18.5 -56.71,2.61 -73.74,3.13 -217.41,3.13 -143.66,0 -160.65,-0.52 -217.34,-3.13l0 0zm-4.45 -972.6c-57.27,2.61 -96.41,11.69 -130.58,24.99 -35.4,13.73 -65.36,32.15 -95.3,62.05 -29.94,29.89 -48.32,59.9 -62.05,95.3 -13.3,34.19 -22.38,73.31 -24.99,130.58 -2.65,57.36 -3.26,75.69 -3.26,221.79 0,146.1 0.61,164.43 3.26,221.79 2.61,57.28 11.69,96.39 24.99,130.58 13.73,35.38 32.11,65.42 62.05,95.3 29.94,29.88 59.9,48.28 95.3,62.05 34.24,13.3 73.31,22.38 130.58,24.99 57.39,2.61 75.7,3.26 221.79,3.26 146.1,0 164.44,-0.61 221.8,-3.26 57.27,-2.61 96.38,-11.69 130.58,-24.99 35.37,-13.77 65.35,-32.15 95.29,-62.05 29.95,-29.89 48.28,-59.92 62.06,-95.29 13.29,-34.2 22.42,-73.31 24.98,-130.58 2.61,-57.41 3.22,-75.7 3.22,-221.8 0,-146.1 -0.61,-164.43 -3.22,-221.79 -2.6,-57.28 -11.69,-96.41 -24.98,-130.58 -13.78,-35.38 -32.16,-65.36 -62.06,-95.3 -29.89,-29.94 -59.92,-48.32 -95.25,-62.05 -34.24,-13.3 -73.35,-22.43 -130.58,-24.99 -57.36,-2.61 -75.7,-3.26 -221.79,-3.26 -146.1,0 -164.45,0.61 -221.84,3.26z"/>
   </g>
   <g>
    <path class="fil2" d="M2769.11 1184.23c0,-99.03 80.26,-179.34 179.29,-179.34 99.04,0 179.34,80.31 179.34,179.34 0,99.03 -80.3,179.34 -179.34,179.34 -99.03,0 -179.29,-80.31 -179.29,-179.34l0 0zm-96.95 0c0,152.57 123.67,276.24 276.24,276.24 152.57,0 276.24,-123.67 276.24,-276.24 0,-152.57 -123.67,-276.24 -276.24,-276.24 -152.57,0 -276.24,123.67 -276.24,276.24l0 0zm498.86 -287.19c0,0.01 0,0.01 0,0.02 0,35.65 28.91,64.56 64.56,64.56 35.65,0 64.55,-28.91 64.55,-64.56 0,-35.64 -28.89,-64.55 -64.53,-64.55l-0.02 0c-35.64,0.01 -64.53,28.89 -64.56,64.53l0 0zm-439.96 725.08c-52.45,-2.38 -80.96,-11.12 -99.9,-18.5 -25.12,-9.78 -43.04,-21.43 -61.88,-40.24 -18.84,-18.82 -30.51,-36.72 -40.24,-61.84 -7.39,-18.93 -16.12,-47.45 -18.51,-99.9 -2.61,-56.71 -3.13,-73.74 -3.13,-217.41 0,-143.66 0.57,-160.65 3.13,-217.4 2.39,-52.45 11.19,-80.91 18.51,-99.9 9.78,-25.12 21.42,-43.04 40.24,-61.88 18.81,-18.85 36.72,-30.51 61.88,-40.24 18.93,-7.39 47.45,-16.13 99.9,-18.51 56.71,-2.61 73.74,-3.13 217.34,-3.13 143.6,0 160.65,0.56 217.41,3.13 52.45,2.39 80.91,11.19 99.9,18.51 25.12,9.73 43.04,21.42 61.88,40.24 18.84,18.81 30.46,36.76 40.24,61.88 7.38,18.93 16.12,47.45 18.51,99.9 2.6,56.75 3.12,73.74 3.12,217.4 0,143.67 -0.52,160.66 -3.12,217.41 -2.39,52.45 -11.17,80.96 -18.51,99.9 -9.78,25.12 -21.42,43.04 -40.24,61.84 -18.82,18.8 -36.76,30.46 -61.88,40.24 -18.94,7.38 -47.45,16.12 -99.9,18.5 -56.71,2.61 -73.74,3.13 -217.41,3.13 -143.66,0 -160.65,-0.52 -217.34,-3.13l0 0zm-4.45 -972.6c-57.27,2.61 -96.41,11.69 -130.58,24.99 -35.4,13.73 -65.36,32.15 -95.3,62.05 -29.94,29.89 -48.32,59.9 -62.05,95.3 -13.3,34.19 -22.38,73.31 -24.99,130.58 -2.65,57.36 -3.26,75.69 -3.26,221.79 0,146.1 0.61,164.43 3.26,221.79 2.61,57.28 11.69,96.39 24.99,130.58 13.73,35.38 32.11,65.42 62.05,95.3 29.94,29.88 59.9,48.28 95.3,62.05 34.24,13.3 73.31,22.38 130.58,24.99 57.39,2.61 75.7,3.26 221.79,3.26 146.1,0 164.44,-0.61 221.8,-3.26 57.27,-2.61 96.38,-11.69 130.58,-24.99 35.37,-13.77 65.35,-32.15 95.29,-62.05 29.95,-29.89 48.28,-59.92 62.06,-95.29 13.29,-34.2 22.42,-73.31 24.98,-130.58 2.61,-57.41 3.22,-75.7 3.22,-221.8 0,-146.1 -0.61,-164.43 -3.22,-221.79 -2.6,-57.28 -11.69,-96.41 -24.98,-130.58 -13.78,-35.38 -32.16,-65.36 -62.06,-95.3 -29.89,-29.94 -59.92,-48.32 -95.25,-62.05 -34.24,-13.3 -73.35,-22.43 -130.58,-24.99 -57.36,-2.61 -75.7,-3.26 -221.79,-3.26 -146.1,0 -164.45,0.61 -221.84,3.26z"/>
   </g>
  </g>
  <path id="tiktok-svgrepo-com.svg" class="fil3" d="M3174.21 2391.51c61.06,-0.93 121.67,-0.45 182.25,-0.93 2.02,75.76 32.75,143.94 81.65,194.45l-0.07 -0.07c52.63,47.41 121.12,78.14 196.61,83.36l1.05 0.08 0 187.85c-71.32,-1.79 -138.39,-18.24 -198.85,-46.52l3.06 1.27c-29.25,-14.06 -53.98,-28.5 -77.48,-44.61l1.94 1.27c-0.45,136.11 0.45,272.22 -0.93,407.85 -3.84,69.12 -26.82,132.16 -63.68,184.79l0.75 -1.16c-61.62,88.26 -161.44,146.19 -274.95,149.62l-0.52 0c-4.59,0.22 -10,0.33 -15.44,0.33 -64.53,0 -124.85,-17.98 -176.25,-49.2l1.49 0.86c-93.55,-56.29 -158.08,-152.6 -170.02,-264.62l-0.15 -1.52c-0.93,-23.32 -1.38,-46.63 -0.44,-69.46 18.27,-178.26 167.63,-316.16 349.17,-316.16 20.41,0 40.4,1.75 59.83,5.07l-2.08 -0.3c0.93,68.97 -1.87,137.98 -1.87,206.95 -15.78,-5.71 -33.98,-9.03 -52.97,-9.03 -69.68,0 -128.95,44.54 -150.88,106.72l-0.34 1.12c-4.96,15.93 -7.83,34.24 -7.83,53.19 0,7.68 0.49,15.29 1.38,22.75l-0.07 -0.89c12.38,76.32 77.81,133.91 156.7,133.91 2.27,0 4.51,-0.04 6.75,-0.15l-0.34 0c54.58,-1.64 101.95,-31 128.73,-74.38l0.37 -0.67c9.96,-13.88 16.79,-30.66 19.06,-48.9l0.04 -0.52c4.66,-83.45 2.8,-166.41 3.25,-249.85 0.44,-187.85 -0.45,-375.25 0.93,-562.61l0.15 0.11z"/>
  <rect class="fil1" x="617.98" y="1196.59" width="1204.48" height="145.48"/>
  <rect class="fil1" x="617.98" y="1469.15" width="1204.48" height="145.48"/>
  <rect class="fil1" x="617.98" y="1741.72" width="1204.48" height="145.48"/>
  <g id="_2355683746192">
   <rect class="fil1" x="617.98" y="934.2" width="135.32" height="135.32"/>
   <rect class="fil1" x="885.26" y="934.2" width="135.32" height="135.32"/>
   <rect class="fil1" x="1152.56" y="934.2" width="135.32" height="135.32"/>
  </g>
 </g>
</svg>
